Coordinates
version=1
nRows=25
nColumns=34
inDegrees=no

Units are S.I. units (second, meters, Newtons, ...)
If the header above contains a line with 'inDegrees', this indicates whether rotational values are in degrees (yes) or radians (no).

endheader
time	pelvis_tilt	pelvis_list	pelvis_rotation	pelvis_tx	pelvis_ty	pelvis_tz	hip_flexion_r	hip_adduction_r	hip_rotation_r	knee_angle_r	ankle_angle_r	subtalar_angle_r	mtp_angle_r	hip_flexion_l	hip_adduction_l	hip_rotation_l	knee_angle_l	ankle_angle_l	subtalar_angle_l	mtp_angle_l	lumbar_extension	lumbar_bending	lumbar_rotation	arm_flex_r	arm_add_r	arm_rot_r	elbow_flex_r	pro_sup_r	arm_flex_l	arm_add_l	arm_rot_l	elbow_flex_l	pro_sup_l
1.3	0.043014	-0.0366981	0.0577789	-0.420871	1.09228	-0.57465	0.357755	-0.0443999	-0.273584	0.341238	-0.416573	-0.0576264	-0.115704	0.42157	-0.167194	-0.147171	0.43683	-0.414443	0.0488405	-0.115704	-0.154799	0.0603169	-0.118369	-0.793242	-0.832968	-0.664354	2.50638	2.07791	-1.05122	-0.618883	-1.08155	2.32585	1.7
1.31	0.0359342	-0.0463015	0.0513884	-0.412743	1.06142	-0.574094	0.416546	-0.0280811	-0.229068	0.469253	-0.239634	-0.119045	-0.115704	0.475765	-0.178793	-0.116943	0.559403	-0.228963	0.0142081	-0.115704	-0.148014	0.0695875	-0.111431	-0.793572	-0.774008	-0.675668	2.49984	2.0825	-1.05198	-0.55866	-1.05546	2.32384	1.6987
1.32	0.0276945	-0.0559696	0.0459443	-0.405811	1.03298	-0.573649	0.474641	-0.0110747	-0.18991	0.586987	-0.0926153	-0.177326	-0.115704	0.529882	-0.188	-0.0871852	0.672444	-0.0712694	-0.0187742	-0.115704	-0.142426	0.0795547	-0.104207	-0.781893	-0.715997	-0.679174	2.48216	2.08599	-1.03956	-0.502417	-1.02203	2.30983	1.69648
1.33	0.0184579	-0.0656226	0.0414907	-0.400066	1.00697	-0.573322	0.531814	0.00648141	-0.155999	0.694452	0.0248151	-0.232346	-0.115704	0.583679	-0.194721	-0.0578477	0.775905	0.0587311	-0.0501552	-0.115704	-0.138227	0.0901294	-0.0967375	-0.758383	-0.659055	-0.674982	2.45352	2.08845	-1.0141	-0.450216	-0.981433	2.284	1.69345
1.34	0.00871081	-0.0750193	0.0381441	-0.395465	0.983453	-0.573125	0.587358	0.024183	-0.12705	0.791696	0.113984	-0.283713	-0.115704	0.636409	-0.198722	-0.0288829	0.869694	0.161695	-0.0799861	-0.115704	-0.135977	0.101031	-0.0891441	-0.72362	-0.603582	-0.66338	2.41454	2.08999	-0.976097	-0.402249	-0.934175	2.24693	1.69
1.35	-0.000751663	-0.0837487	0.0360739	-0.391924	0.962482	-0.573078	0.640037	0.0413397	-0.102643	0.878784	0.177714	-0.330711	-0.115704	0.686786	-0.199689	-0.000390116	0.953705	0.239365	-0.108197	-0.115704	-0.13656	0.111753	-0.0816287	-0.678738	-0.550384	-0.644816	2.36654	2.09079	-0.926646	-0.358889	-0.881161	2.19991	1.68687
1.36	-0.00909184	-0.0913219	0.0354363	-0.389317	0.944072	-0.573193	0.688382	0.057085	-0.0823252	0.955776	0.220283	-0.372434	-0.115704	0.733305	-0.197402	0.0272598	1.02787	0.294764	-0.134508	-0.115704	-0.140843	0.121652	-0.0744225	-0.62546	-0.500685	-0.619805	2.3117	2.09105	-0.867465	-0.320712	-0.823561	2.14501	1.68512
1.37	-0.0158276	-0.0973132	0.036295	-0.387488	0.928146	-0.573476	0.731239	0.070555	-0.0656949	1.02277	0.24683	-0.408041	-0.115704	0.774785	-0.191893	0.0534186	1.09222	0.331941	-0.15846	-0.115704	-0.149178	0.130109	-0.0676941	-0.566006	-0.456005	-0.588853	2.25291	2.09097	-0.800754	-0.288504	-0.76252	2.08507	1.68594
1.38	-0.0210842	-0.101455	0.0385733	-0.386274	0.914521	-0.573916	0.768232	0.0810393	-0.0524061	1.08005	0.262546	-0.436998	-0.115704	0.810791	-0.183505	0.0772828	1.14699	0.355415	-0.179548	-0.115704	-0.16108	0.136644	-0.0615228	-0.502816	-0.417954	-0.552375	2.19348	2.09071	-0.728953	-0.263168	-0.698971	2.02338	1.69049
1.39	-0.0255489	-0.103665	0.0420461	-0.385514	0.902925	-0.574489	0.799871	0.0880751	-0.0421191	1.12822	0.27198	-0.459155	-0.115704	0.841719	-0.172838	0.0980773	1.19268	0.369539	-0.197357	-0.115704	-0.175286	0.140968	-0.0559202	-0.438166	-0.388	-0.510669	2.13673	2.0904	-0.654478	-0.245572	-0.633609	1.96337	1.6996
1.4	-0.0302028	-0.104033	0.0463582	-0.385066	0.893046	-0.575159	0.82732	0.0914918	-0.0344735	1.16821	0.278633	-0.474696	-0.115704	0.868571	-0.160673	0.115212	1.23007	0.377997	-0.211649	-0.115704	-0.19011	0.142979	-0.0508642	-0.373814	-0.36723	-0.463974	2.08549	2.09013	-0.579488	-0.236356	-0.567014	1.90826	1.71363
1.41	-0.0360007	-0.102784	0.0510673	-0.384808	0.884578	-0.57588	0.851987	0.0914063	-0.0290932	1.20118	0.28485	-0.484045	-0.115704	0.892595	-0.147874	0.128358	1.26017	0.383542	-0.22237	-0.115704	-0.203889	0.142739	-0.0463347	-0.310805	-0.356151	-0.412599	2.04179	2.08995	-0.505747	-0.235763	-0.499826	1.86073	1.73234
1.42	-0.0436298	-0.100215	0.0557161	-0.384647	0.877258	-0.576607	0.875151	0.0881726	-0.0255943	1.22831	0.291925	-0.487821	-0.115704	0.914946	-0.135286	0.13745	1.28412	0.387985	-0.229635	-0.115704	-0.215326	0.140442	-0.0423562	-0.249482	-0.354574	-0.357102	2.00672	2.08985	-0.434603	-0.243538	-0.432909	1.82275	1.75494
1.43	-0.0533963	-0.0966404	0.0599169	-0.384513	0.870882	-0.577299	0.897715	0.0823097	-0.0235824	1.25068	0.300306	-0.486832	-0.115704	0.936455	-0.123628	0.142643	1.30299	0.392342	-0.233682	-0.115704	-0.223659	0.136369	-0.0390298	-0.18969	-0.361589	-0.298443	1.98045	2.08983	-0.367061	-0.258903	-0.367438	1.79548	1.78009
1.44	-0.0652324	-0.0923591	0.063409	-0.384359	0.86531	-0.577934	0.920123	0.0744386	-0.0226593	1.26921	0.309846	-0.482049	-0.115704	0.957552	-0.113423	0.144275	1.31775	0.397029	-0.234848	-0.115704	-0.228677	0.130874	-0.0365229	-0.131085	-0.375664	-0.238073	1.96242	2.08987	-0.303898	-0.28062	-0.3049	1.77919	1.80612
1.45	-0.0787893	-0.0876517	0.0660674	-0.38415	0.860455	-0.578501	0.94241	0.0652381	-0.022449	1.28454	0.320045	-0.474538	-0.115704	0.978317	-0.104996	0.142827	1.32916	0.402066	-0.233546	-0.115704	-0.230623	0.124369	-0.0350182	-0.0734331	-0.394829	-0.177903	1.95154	2.08993	-0.245773	-0.307095	-0.247022	1.77339	1.83117
1.46	-0.0935692	-0.0827905	0.0678721	-0.38387	0.85627	-0.578998	0.96434	0.0554085	-0.0226269	1.29711	0.330245	-0.465373	-0.115704	0.998597	-0.0984935	0.13888	1.33783	0.407243	-0.230239	-0.115704	-0.230044	0.117309	-0.0346495	-0.0168173	-0.416907	-0.12015	1.94647	2.08999	-0.193316	-0.336533	-0.195645	1.77695	1.85355
1.47	-0.109059	-0.078038	0.0688663	-0.383514	0.852726	-0.579429	0.985574	0.0456346	-0.0229292	1.30719	0.339771	-0.455559	-0.115704	1.01815	-0.0939184	0.133083	1.34419	0.412248	-0.225425	-0.115704	-0.22763	0.110149	-0.0354586	0.0382734	-0.439741	-0.0671113	1.94578	2.09	-0.14716	-0.367107	-0.152561	1.7882	1.872
1.48	-0.12483	-0.0736345	0.0691267	-0.38309	0.8498	-0.579799	1.0058	0.0365425	-0.0231453	1.31495	0.34803	-0.445985	-0.115704	1.03676	-0.0911503	0.126101	1.34856	0.416763	-0.219624	-0.115704	-0.22407	0.103303	-0.0373771	0.0909519	-0.461392	-0.020913	1.94812	2.08996	-0.107922	-0.397136	-0.119286	1.80522	1.88584
1.49	-0.140585	-0.0697831	0.0687512	-0.38261	0.847462	-0.580112	1.02483	0.0286515	-0.0231122	1.32049	0.354573	-0.437386	-0.115704	1.0543	-0.0899611	0.118587	1.35118	0.420519	-0.21336	-0.115704	-0.219958	0.0971061	-0.0402278	0.140015	-0.480287	0.0166913	1.9523	2.08986	-0.0761151	-0.42522	-0.0968281	1.82593	1.89504
1.5	-0.156149	-0.0666314	0.0678593	-0.382088	0.84567	-0.580371	1.04256	0.0223251	-0.0227162	1.32395	0.359138	-0.43031	-0.115704	1.07074	-0.090033	0.111135	1.35226	0.423326	-0.207141	-0.115704	-0.215768	0.0917911	-0.0437373	0.184074	-0.495301	0.0444486	1.9574	2.0897	-0.052019	-0.450335	-0.0854787	1.84827	1.89998
1.51	-0.171416	-0.0642499	0.0665955	-0.381534	0.844378	-0.580585	1.05899	0.0177296	-0.0218936	1.32547	0.361667	-0.425085	-0.115704	1.08608	-0.0909797	0.104237	1.35196	0.425088	-0.201418	-0.115704	-0.211872	0.0874694	-0.047564	0.221721	-0.505773	0.0616655	1.96277	2.0895	-0.0355736	-0.471849	-0.0847186	1.87033	1.90129
1.52	-0.186309	-0.0626175	0.0651285	-0.380957	0.843532	-0.580767	1.07412	0.0148173	-0.0206263	1.32527	0.362291	-0.421803	-0.115704	1.10033	-0.0923683	0.0982521	1.35045	0.425788	-0.196572	-0.115704	-0.208566	0.0841275	-0.0513404	0.251703	-0.511484	0.0682327	1.968	2.08931	-0.026325	-0.4895	-0.0932573	1.89041	1.89958
1.53	-0.200751	-0.0616262	0.0636402	-0.38036	0.843079	-0.580934	1.08797	0.0133481	-0.0189359	1.32358	0.361298	-0.420339	-0.115704	1.11349	-0.093754	0.0933955	1.34785	0.425477	-0.192896	-0.115704	-0.20608	0.0816439	-0.0547187	0.273101	-0.512599	0.0646221	1.9729	2.08919	-0.0234561	-0.503328	-0.109195	1.90705	1.89544
1.54	-0.214688	-0.061117	0.0622994	-0.37975	0.842956	-0.581105	1.10062	0.0129559	-0.0168827	1.3207	0.359074	-0.420401	-0.115704	1.12556	-0.0947348	0.089751	1.34433	0.424248	-0.190581	-0.115704	-0.204555	0.0798339	-0.0574012	0.28545	-0.509592	0.0518356	1.97736	2.08922	-0.0258854	-0.513603	-0.130259	1.91913	1.88939
